<svg xmlns="http://www.w3.org/2000/svg" viewBox="0 0 1200 900" role="img" aria-labelledby="title desc">
  <title id="title">Fixed-fee comparison returns</title>
  <desc id="desc">An illustrative line chart showing fixed-fee management retaining more portfolio value over time than variable-fee management.</desc>
  <defs>
    <linearGradient id="paper" x1="0" x2="1" y1="0" y2="1">
      <stop offset="0" stop-color="#ffffff"/>
      <stop offset="1" stop-color="#eef2f4"/>
    </linearGradient>
    <filter id="shadow" x="-20%" y="-20%" width="140%" height="140%">
      <feDropShadow dx="0" dy="24" stdDeviation="24" flood-color="#082d52" flood-opacity=".13"/>
    </filter>
  </defs>
  <rect width="1200" height="900" fill="#f6f5f0"/>
  <circle cx="1000" cy="140" r="340" fill="#e9d9b9" opacity=".28"/>
  <circle cx="180" cy="820" r="300" fill="#d6e0e6" opacity=".38"/>
  <g filter="url(#shadow)">
    <rect x="125" y="105" width="950" height="650" rx="10" fill="url(#paper)" stroke="#d8dde1" stroke-width="3"/>
  </g>
  <g font-family="Inter, Arial, sans-serif" font-weight="800" letter-spacing="4" text-transform="uppercase">
    <text x="170" y="172" fill="#082d52" font-size="28">Fee Drag Over Time</text>
    <text x="170" y="212" fill="#6a7883" font-size="18">Illustrative retained portfolio value</text>
  </g>
  <g transform="translate(170 275)">
    <path d="M0 410H850" stroke="#8ea0ad" stroke-width="4"/>
    <path d="M0 410V0" stroke="#8ea0ad" stroke-width="4"/>
    <path d="M0 315H850M0 220H850M0 125H850" stroke="#d9e0e5" stroke-width="3"/>
    <path d="M8 365C135 320 240 276 370 212C530 132 660 82 820 36" fill="none" stroke="#c88b21" stroke-width="12" stroke-linecap="round"/>
    <path d="M8 365C130 332 250 296 370 252C540 190 674 136 820 104" fill="none" stroke="#94a3ae" stroke-width="12" stroke-linecap="round"/>
    <circle cx="820" cy="36" r="13" fill="#c88b21"/>
    <circle cx="820" cy="104" r="13" fill="#94a3ae"/>
    <g font-family="Inter, Arial, sans-serif" font-weight="800">
      <text x="0" y="470" fill="#667580" font-size="26">Today</text>
      <text x="760" y="470" fill="#667580" font-size="26">Future</text>
      <text x="560" y="50" fill="#082d52" font-size="28">Fixed fee</text>
      <text x="548" y="132" fill="#596a76" font-size="28">Variable fee</text>
    </g>
  </g>
  <g font-family="Inter, Arial, sans-serif" font-size="22" font-weight="800" fill="#52616c">
    <rect x="170" y="800" width="48" height="8" rx="4" fill="#c88b21"/>
    <text x="235" y="810">Fixed fee: more retained growth</text>
    <rect x="620" y="800" width="48" height="8" rx="4" fill="#94a3ae"/>
    <text x="685" y="810">Variable fee: fees rise with assets</text>
  </g>
</svg>
