<svg xmlns="http://www.w3.org/2000/svg" viewBox="0 0 1200 900" role="img" aria-labelledby="title desc">
  <title id="title">Securities Investment Pyramid</title>
  <desc id="desc">A five-layer investment pyramid moving from fixed income base to direct investments, with risk and return potential increasing toward the top.</desc>
  <defs>
    <linearGradient id="bg" x1="0" x2="1" y1="0" y2="1">
      <stop offset="0" stop-color="#071b31"/>
      <stop offset="1" stop-color="#0b3a64"/>
    </linearGradient>
    <linearGradient id="gold" x1="0" x2="1" y1="0" y2="1">
      <stop offset="0" stop-color="#e3b34e"/>
      <stop offset="1" stop-color="#b97813"/>
    </linearGradient>
    <filter id="shadow" x="-20%" y="-20%" width="140%" height="140%">
      <feDropShadow dx="0" dy="20" stdDeviation="18" flood-color="#00101f" flood-opacity=".32"/>
    </filter>
  </defs>
  <rect width="1200" height="900" fill="url(#bg)"/>
  <circle cx="620" cy="340" r="280" fill="#c88b21" opacity=".12"/>
  <circle cx="250" cy="760" r="260" fill="#ffffff" opacity=".05"/>
  <g font-family="Inter, Arial, sans-serif" font-weight="800" letter-spacing="4" text-transform="uppercase">
    <text x="600" y="92" text-anchor="middle" fill="#ffffff" opacity=".72" font-size="26">Risk-Aware Allocation</text>
    <text x="600" y="132" text-anchor="middle" fill="#c88b21" font-size="20">The Securities Investment Pyramid</text>
  </g>
  <g filter="url(#shadow)" font-family="Inter, Arial, sans-serif" font-weight="800" letter-spacing="2" text-anchor="middle" text-transform="uppercase">
    <polygon points="480,190 720,190 752,276 448,276" fill="url(#gold)" stroke="#fff" stroke-width="5"/>
    <text x="600" y="238" fill="#fff" font-size="20">Direct Investments</text>
    <polygon points="452,302 748,302 788,390 412,390" fill="#203d56" stroke="#fff" stroke-width="5"/>
    <text x="600" y="355" fill="#fff" font-size="23">Alternative Strategies</text>
    <polygon points="388,416 812,416 858,504 342,504" fill="#294961" stroke="#fff" stroke-width="5"/>
    <text x="600" y="470" fill="#fff" font-size="26">Equities</text>
    <polygon points="324,530 876,530 928,620 272,620" fill="#31546c" stroke="#fff" stroke-width="5"/>
    <text x="600" y="585" fill="#fff" font-size="26">Balanced Allocation</text>
    <polygon points="262,646 938,646 1000,740 200,740" fill="#456a80" stroke="#fff" stroke-width="5"/>
    <text x="600" y="704" fill="#fff" font-size="28">Fixed Income Base</text>
  </g>
  <g font-family="Inter, Arial, sans-serif" fill="#ffffff" font-size="22" font-weight="700">
    <path d="M1032 718V214" stroke="#c88b21" stroke-width="6" stroke-linecap="round"/>
    <path d="M1032 214l-22 34M1032 214l22 34" stroke="#c88b21" stroke-width="6" stroke-linecap="round"/>
    <text x="1058" y="482" transform="rotate(-90 1058 482)" text-anchor="middle" fill="#cbd6df">Increasing risk and return potential</text>
  </g>
</svg>
