<svg xmlns="http://www.w3.org/2000/svg" viewBox="0 0 1200 900" role="img" aria-labelledby="title desc">
  <title id="title">Securities Investment Pyramid</title>
  <desc id="desc">A bottom-up securities investment pyramid showing core foundational investments, alpha investments, and direct investments, with risk and return potential increasing toward the top.</desc>
  <defs>
    <linearGradient id="bg" x1="0" x2="1" y1="0" y2="1">
      <stop offset="0" stop-color="#071b31"/>
      <stop offset="1" stop-color="#0b3a64"/>
    </linearGradient>
    <linearGradient id="gold" x1="0" x2="1" y1="0" y2="1">
      <stop offset="0" stop-color="#e3b34e"/>
      <stop offset="1" stop-color="#b97813"/>
    </linearGradient>
    <filter id="shadow" x="-20%" y="-20%" width="140%" height="140%">
      <feDropShadow dx="0" dy="20" stdDeviation="18" flood-color="#00101f" flood-opacity=".32"/>
    </filter>
  </defs>
  <rect width="1200" height="900" fill="url(#bg)"/>
  <circle cx="620" cy="340" r="280" fill="#c88b21" opacity=".12"/>
  <circle cx="250" cy="760" r="260" fill="#ffffff" opacity=".05"/>
  <g font-family="Inter, Arial, sans-serif" font-weight="800" letter-spacing="4" text-transform="uppercase">
    <text x="600" y="100" text-anchor="middle" fill="#c88b21" font-size="24">Risk tolerance determines the percentages</text>
  </g>
  <g filter="url(#shadow)" font-family="Inter, Arial, sans-serif" font-weight="800" letter-spacing="2" text-anchor="middle" text-transform="uppercase">
    <polygon points="488,174 712,174 750,258 450,258" fill="url(#gold)" stroke="#fff" stroke-width="5"/>
    <text x="600" y="216" fill="#fff" font-size="21">Direct Investments</text>
    <polygon points="420,288 780,288 832,382 368,382" fill="#203d56" stroke="#fff" stroke-width="5"/>
    <text x="600" y="342" fill="#fff" font-size="27">Alpha Level Two</text>
    <polygon points="336,414 864,414 932,512 268,512" fill="#294961" stroke="#fff" stroke-width="5"/>
    <text x="600" y="470" fill="#fff" font-size="28">Alpha Level One</text>
    <polygon points="244,544 956,544 1040,650 160,650" fill="#31546c" stroke="#fff" stroke-width="5"/>
    <text x="600" y="604" fill="#fff" font-size="30">Core Market Beta</text>
    <polygon points="170,684 1030,684 1140,806 60,806" fill="#456a80" stroke="#fff" stroke-width="5"/>
    <text x="600" y="752" fill="#fff" font-size="32">Foundational Investments</text>
  </g>
  <g font-family="Inter, Arial, sans-serif" fill="#ffffff" font-size="22" font-weight="700">
    <path d="M1116 744V214" stroke="#c88b21" stroke-width="6" stroke-linecap="round"/>
    <path d="M1116 214l-22 34M1116 214l22 34" stroke="#c88b21" stroke-width="6" stroke-linecap="round"/>
    <text x="1142" y="482" transform="rotate(-90 1142 482)" text-anchor="middle" fill="#cbd6df">Increasing risk and return potential</text>
  </g>
</svg>
